v 0.3999959826 0.0597409308 -0.2839436531
vn 0 1 -7.491028953e-08
v -0.4000039995 0.0597410053 0.7160562873
vn -3.800418591e-10 1 -7.426052662e-08
v 0.3999959826 -0.01225905214 -0.2839436531
vn 0 -1 7.601190788e-08
v 0.2454064339 0.0597410053 0.7160562873
vn 0 1 -7.229380827e-08
v 0.3999959826 -0.01225898787 0.5614667535
vn 2.843956715e-08 -1 4.909994544e-08
v -0.4000039995 -0.01225905214 -0.2839436531
vn 1.679362427e-08 -1 4.729960423e-08
v 0.3999959826 0.05974099413 0.5614667535
vn -2.169603802e-10 1 -7.453935069e-08
v -0.4000039995 -0.01225900743 0.7160562873
vn 0 -1 4.470348358e-08
v 0.2454064488 -0.01225900743 0.7160562873
vn 2.941680322e-08 -1 2.571757207e-08
v -0.4000039995 0.0597409308 -0.2839436531
vn -2.316230679e-10 1 -7.469110841e-08
v 0.3999959826 0.0597409308 -0.2839436531
vn 0 -6.123234263e-17 -1
v 0.3999959826 -0.01225905214 -0.2839436531
vn 0 -6.123234263e-17 -1
v -0.4000039995 -0.01225905214 -0.2839436531
vn 0 -6.123234263e-17 -1
v -0.4000039995 0.0597409308 -0.2839436531
vn 0 -6.123234263e-17 -1
v 0.3999959826 0.0597409308 -0.2839436531
vn 0.08931693435 0.9924106598 -0.0845194459
v -0.4000039995 0.0597410053 0.7160562873
vn -0.1572136283 0.9823381901 0.1014672667
v 0.3999959826 -0.01225905214 -0.2839436531
vn 0.1747150123 -0.9706392288 -0.1653303057
v 0.2454064339 0.0597410053 0.7160562873
vn 0.09616521746 0.8620281219 0.4976542294
v 0.3999959826 -0.01225898787 0.5614667535
vn 0.07712588459 -0.9969500899 0.01192290056
v 0.3999959826 0.05974099413 0.5614667535
vn 0.09097665548 0.9957537055 0.01406397019
v -0.4000039995 -0.01225900743 0.7160562873
vn -0.1105864272 -0.9913004041 0.07137368619
v 0.2454064488 -0.01225900743 0.7160562873
vn 0.02453287877 -0.9916047454 0.1269573718
v 0.2454064339 0.0597410053 0.7160562873
vn 0.7071068287 1.463432113e-07 0.7071067095
v 0.3999959826 -0.01225898787 0.5614667535
vn 0.7071068883 -1.341633617e-16 0.7071066499
v 0.3999959826 0.05974099413 0.5614667535
vn 0.7071068883 7.317162698e-08 0.7071067095
v 0.2454064488 -0.01225900743 0.7160562873
vn 0.7071068883 7.317162698e-08 0.7071067095
v -0.4000039995 0.0597410053 0.7160562873
vn -1 0 0
v -0.4000039995 -0.01225905214 -0.2839436531
vn -1 0 0
v -0.4000039995 -0.01225900743 0.7160562873
vn -1 0 0
v -0.4000039995 0.0597409308 -0.2839436531
vn -1 0 0
# mm_gid 0
g mmGroup0
f 2//2 4//4 7//7 
f 9//9 8//8 6//6 
f 6//6 5//5 9//9 
f 3//3 5//5 6//6 
f 7//7 1//1 10//10 
f 10//10 2//2 7//7 
f 14//14 12//12 13//13 
f 14//14 11//11 12//12 
f 22//22 16//16 21//21 
f 20//20 19//19 17//17 
f 15//15 20//20 17//17 
f 18//18 16//16 22//22 
f 25//25 23//23 26//26 
f 26//26 24//24 25//25 
f 27//27 30//30 28//28 
f 29//29 27//27 28//28 
