v 0.4999959767 0.0634611994 0.5164622664
vn 0 1 -8.386856365e-08
v -0.172354877 0.06346120685 0.6263415217
vn 0 1 -6.780694406e-08
v -0.172354877 -0.0165387895 0.6263415217
vn 2.132699128e-09 -1 7.632636567e-08
v -0.5000039935 0.0634611398 -0.1942288727
vn -8.55470269e-24 1 -8.171781474e-08
v 0.4999959767 0.0634611398 -0.1942288727
vn -8.538337815e-10 1 -8.333994117e-08
v 0.4999959767 -0.01653879695 0.5164622664
vn 0 -1 7.86267762e-08
v -0.5000039935 -0.01653885283 -0.1942288727
vn 5.614654852e-10 -1 7.802115931e-08
v 0.4999959767 -0.01653885283 -0.1942288727
vn 0 -1 7.86267762e-08
v -0.06000440195 -0.01653879695 0.5164622664
vn 1.605767297e-09 -1 7.763262744e-08
v -0.4989355206 0.06346120685 0.6263415217
vn -1.1331589e-09 1 -8.264629514e-08
v -0.06000440195 0.0634611994 0.5164622664
vn -1.832947238e-09 1 -8.447057809e-08
v -0.4989355206 -0.0165387895 0.6263415217
vn 0 -1 7.717793693e-08
v 0.4999959767 0.0634611994 0.5164622664
vn 1 0 0
v -0.5000039935 0.0634611398 -0.1942288727
vn -0.9999991655 7.973116376e-20 0.001302108751
v 0.4999959767 0.0634611398 -0.1942288727
vn 1 0 0
v 0.4999959767 -0.01653879695 0.5164622664
vn 1 0 0
v -0.5000039935 -0.01653885283 -0.1942288727
vn -0.9999991655 7.973116376e-20 0.001302108751
v 0.4999959767 -0.01653885283 -0.1942288727
vn 1 0 0
v -0.4989355206 0.06346120685 0.6263415217
vn -0.9999991655 7.973116376e-20 0.001302108751
v -0.4989355206 -0.0165387895 0.6263415217
vn -0.9999991655 7.973116376e-20 0.001302108751
v 0.4999959767 0.0634611994 0.5164622664
vn 0.1380346417 0.9662431479 0.2175330967
v -0.172354877 0.06346120685 0.6263415217
vn 0.217578724 0.4441062808 0.8691542745
v -0.172354877 -0.0165387895 0.6263415217
vn 0.02209595591 -0.9958518147 0.0882660225
v -0.5000039935 0.0634611398 -0.1942288727
vn -0.1572665274 0.9829158187 -0.0956228599
v 0.4999959767 0.0634611398 -0.1942288727
vn 0.07672641426 0.9911900163 -0.1079603657
v 0.4999959767 -0.01653879695 0.5164622664
vn 0.1019465029 -0.9939786792 0.04016526416
v -0.5000039935 -0.01653885283 -0.1942288727
vn -0.04333759472 -0.9934669137 -0.1055714637
v 0.4999959767 -0.01653885283 -0.1942288727
vn 0.0792478919 -0.9905986786 -0.1115081236
v -0.06000440195 -0.01653879695 0.5164622664
vn 0.03271723539 -0.9792093039 0.2001966387
v -0.4989355206 0.06346120685 0.6263415217
vn -0.05918705091 0.997967124 0.02363297157
v -0.06000440195 0.0634611994 0.5164622664
vn 0.01280549727 0.9968431592 0.0783566907
v -0.4989355206 -0.0165387895 0.6263415217
vn -0.4333251715 -0.8844726682 0.1730243564
v -0.172354877 0.06346120685 0.6263415217
vn 0.6992006302 -1.740396281e-17 0.714925468
v -0.172354877 -0.0165387895 0.6263415217
vn 0.6992006302 -7.858448753e-17 0.714925468
v -0.06000440195 -0.01653879695 0.5164622664
vn 0.6992006302 -1.740396281e-17 0.714925468
v -0.06000440195 0.0634611994 0.5164622664
vn 0.6992006302 4.377656192e-17 0.714925468
# mm_gid 0
g mmGroup0
f 11//11 1//1 5//5 
f 10//10 11//11 5//5 
f 7//7 8//8 6//6 
f 10//10 2//2 11//11 
f 10//10 5//5 4//4 
f 9//9 7//7 6//6 
f 12//12 7//7 3//3 
f 9//9 3//3 7//7 
f 15//15 13//13 16//16 
f 19//19 14//14 20//20 
f 18//18 15//15 16//16 
f 20//20 14//14 17//17 
f 28//28 27//27 25//25 
f 24//24 25//25 27//27 
f 22//22 32//32 23//23 
f 21//21 31//31 29//29 
f 22//22 30//30 32//32 
f 26//26 21//21 29//29 
f 35//35 36//36 33//33 
f 35//35 33//33 34//34 
